<svg width="400" height="400" xmlns="http://www.w3.org/2000/svg">
    <!-- 绿色背景 -->
    <rect x="0" y="0" width="400" height="400" fill="#4CAF50" />

    <!-- 云彩 -->
    <circle cx="80" cy="100" r="30" fill="#FFFFFF" />
    <circle cx="130" cy="80" r="40" fill="#FFFFFF" />
    <circle cx="170" cy="120" r="35" fill="#FFFFFF" />
    <circle cx="220" cy="90" r="45" fill="#FFFFFF" />
    <circle cx="270" cy="100" r="30" fill="#FFFFFF" />
    <circle cx="320" cy="120" r="35" fill="#FFFFFF" />
    <circle cx="370" cy="80" r="40" fill="#FFFFFF" />

    <!-- 星星 -->
    <circle cx="20" cy="30" r="2" fill="#FFFFFF" />
    <circle cx="50" cy="60" r="2" fill="#FFFFFF" />
    <circle cx="90" cy="20" r="2" fill="#FFFFFF" />
    <circle cx="120" cy="50" r="2" fill="#FFFFFF" />
    <circle cx="180" cy="30" r="2" fill="#FFFFFF" />
    <circle cx="210" cy="20" r="2" fill="#FFFFFF" />
    <circle cx="240" cy="60" r="2" fill="#FFFFFF" />
    <circle cx="290" cy="40" r="2" fill="#FFFFFF" />
    <circle cx="340" cy="20" r="2" fill="#FFFFFF" />
    <circle cx="370" cy="50" r="2" fill="#FFFFFF" />

    <!-- 火箭主体 -->
    <rect x="175" y="150" width="50" height="120" fill="#BDBDBD" />

    <!-- 火箭头部 -->
    <polygon points="200,50 225,150 175,150" fill="#BDBDBD" />

    <!-- 火焰 -->
    <polygon points="175,270 200,330 225,270" fill="#FF5722" />
    <polygon points="175,290 200,350 225,290" fill="#FF9800" />
    <polygon points="175,310 200,370 225,310" fill="#FFC107" />
</svg>
